<svg xmlns="http://www.w3.org/2000/svg" xml:space="preserve" width="2480px" height="3508px" version="1.1" style="shape-rendering:geometricPrecision; text-rendering:geometricPrecision; image-rendering:optimizeQuality; fill-rule:evenodd; clip-rule:evenodd"
viewBox="0 0 2480 3507"
 xmlns:xlink="http://www.w3.org/1999/xlink">
 <g>
  <polygon class="home-area" points="90,314 96,274 123,276 123,270 96,268 68,267 62,309 "/>
  <polygon class="home-area" points="96,274 90,314 116,318 122,280 123,276 "/>
  <polygon class="home-area" points="122,280 116,318 136,327 146,327 150,281 "/>
  <polygon class="home-area" points="150,281 146,327 174,327 182,282 "/>
  <polygon class="home-area" points="123,270 123,268 129,264 129,239 125,236 101,237 96,268 "/>
  <polygon class="home-area" points="96,268 101,237 73,238 68,267 "/>
  <polygon class="home-area" points="74,231 116,228 113,200 92,207 77,215 "/>
  <polygon class="home-area" points="113,200 116,228 159,226 158,200 143,198 "/>
  <polygon class="home-area" points="158,200 159,226 206,226 206,221 184,203 "/>
  <polygon class="home-area" points="265,225 263,239 276,242 338,240 339,229 290,224 "/>
  <line class="fil1 str0" x1="321" y1="292" x2="321" y2= "304" />
  <polygon class="home-area" points="321,304 321,292 316,289 316,282 280,285 281,307 321,304 "/>
  <polygon class="home-area" points="321,292 321,304 363,301 371,283 332,286 331,289 328,291 "/>
  <polygon class="home-area" points="521,251 511,272 550,284 559,257 "/>
  <polygon class="home-area" points="559,257 550,284 586,294 591,277 595,263 "/>
  <polygon class="home-area" points="591,277 586,294 624,304 633,301 637,283 "/>
  <polygon class="home-area" points="591,277 637,283 642,262 597,255 595,263 "/>
  <polygon class="home-area" points="597,255 642,262 645,247 640,242 603,236 "/>
  <polygon class="home-area" points="597,255 603,236 567,232 559,257 595,263 "/>
  <polygon class="home-area" points="559,257 567,232 531,230 521,251 "/>
  <polygon class="home-area" points="521,251 531,230 494,229 485,245 "/>
  <polygon class="home-area" points="521,251 485,245 476,262 511,272 "/>
  <polygon class="home-area" points="476,262 485,245 494,229 475,229 476,231 472,234 468,232 455,251 459,257 "/>
  <polygon class="home-area" points="444,248 454,232 429,226 415,247 434,250 "/>
  <polygon class="home-area" points="415,247 429,226 408,220 397,234 384,236 382,240 "/>
  <polygon class="home-area" points="429,226 454,232 457,228 463,224 431,195 408,220 "/>
  <polygon class="home-area" points="431,195 463,224 467,222 478,222 478,200 "/>
  <polygon class="home-area" points="478,200 478,222 512,223 513,201 492,201 "/>
  <polygon class="home-area" points="513,201 512,223 544,224 548,198 "/>
  <polygon class="home-area" points="548,198 544,224 579,227 585,195 "/>
  <polygon class="home-area" points="585,195 579,227 612,232 622,197 599,193 "/>
  <polygon class="home-area" points="622,197 612,232 640,235 650,232 654,210 649,203 "/>
  <polygon class="home-area" points="624,315 606,310 593,337 618,343 619,339 624,337 629,319 "/>
  <polygon class="home-area" points="617,346 592,340 574,375 613,377 622,351 "/>
  <polygon class="home-area" points="574,375 592,340 617,346 618,343 593,337 559,329 539,366 573,375 "/>
  <polygon class="home-area" points="559,329 593,337 606,310 574,302 "/>
  <polygon class="home-area" points="559,329 574,302 551,296 542,297 530,316 532,321 531,323 "/>
  <polygon class="home-area" points="559,329 531,323 529,327 522,327 504,356 539,366 "/>
  <polygon class="home-area" points="499,354 516,325 513,320 494,315 473,350 "/>
  <polygon class="home-area" points="496,312 514,317 516,314 522,314 533,296 533,294 527,290 512,285 "/>
  <polygon class="home-area" points="496,312 512,285 490,277 473,305 "/>
  <polygon class="home-area" points="496,312 473,305 449,342 468,349 473,350 494,315 513,320 514,317 "/>
  <polygon class="home-area" points="449,342 473,305 451,299 435,294 433,298 448,302 427,336 "/>
  <polygon class="home-area" points="451,299 473,305 490,277 470,271 "/>
  <polygon class="home-area" points="451,299 470,271 455,265 447,267 434,287 437,292 435,294 "/>
  <polygon class="home-area" points="448,302 433,298 426,299 406,331 427,336 "/>
  <polygon class="home-area" points="413,311 392,305 380,326 401,330 "/>
  <polygon class="home-area" points="380,326 392,305 370,300 360,317 360,325 "/>
  <polygon class="home-area" points="392,305 413,311 421,298 417,294 419,290 383,280 370,300 "/>
  <polygon class="home-area" points="383,280 419,290 420,288 426,287 439,265 433,259 399,253 "/>
  <polygon class="home-area" points="1098,401 1097,405 1105,405 1108,409 1107,418 1145,417 1145,401 1103,399 "/>
  <polygon class="home-area" points="1145,401 1145,417 1177,421 1180,394 1173,394 1154,401 "/>
  <polygon class="home-area" points="1180,394 1177,421 1206,424 1208,396 "/>
  <polygon class="home-area" points="1208,396 1206,424 1207,424 1233,427 1235,398 1208,396 "/>
  <polygon class="home-area" points="1235,398 1233,427 1256,430 1259,400 "/>
  <polygon class="home-area" points="1259,400 1256,430 1280,432 1283,402 "/>
  <polygon class="home-area" points="1283,402 1280,432 1298,434 1306,419 1315,404 "/>
  <polygon class="home-area" points="1080,420 1085,393 1053,391 1049,419 "/>
  <polygon class="home-area" points="1049,419 1053,391 1085,393 1086,389 1039,385 1022,384 1015,419 "/>
  <polygon class="home-area" points="1015,419 1022,384 993,382 992,385 985,387 980,419 "/>
  <polygon class="home-area" points="993,382 1022,384 1039,385 1043,360 993,356 989,373 994,378 "/>
  <polygon class="home-area" points="1043,360 1039,385 1086,389 1091,364 "/>
  <polygon class="home-area" points="1043,360 1091,364 1101,346 1096,343 1047,337 "/>
  <polygon class="home-area" points="1043,360 1047,337 998,332 993,356 "/>
  <polygon class="home-area" points="1084,330 1115,333 1130,304 1128,303 1120,303 1113,298 1108,300 1097,301 1094,309 1088,318 1086,326 "/>
  <polygon class="home-area" points="1078,323 1080,316 1088,306 1090,287 1078,283 1064,288 1049,302 1044,318 1044,325 1074,328 "/>
  <polygon class="home-area" points="1044,318 1049,302 1025,301 1018,296 1011,321 1028,324 1030,318 "/>
  <polygon class="home-area" points="1011,321 1018,296 1005,286 989,287 981,317 "/>
  <polygon class="home-area" points="981,317 989,287 959,287 952,313 "/>
  <polygon class="home-area" points="952,313 959,287 927,287 922,309 "/>
  <polygon class="home-area" points="922,309 927,287 890,288 890,311 "/>
  <polygon class="home-area" points="890,311 890,288 859,288 858,312 "/>
  <polygon class="home-area" points="858,312 859,288 825,289 823,313 "/>
  <polygon class="home-area" points="823,313 825,289 792,279 789,315 "/>
  <polygon class="home-area" points="789,315 792,279 784,277 767,276 756,281 754,316 "/>
  <polygon class="home-area" points="754,316 756,281 733,293 724,292 721,317 "/>
  <polygon class="home-area" points="721,317 724,292 709,291 693,279 689,279 684,310 683,315 "/>
  <polygon class="home-area" points="684,310 689,279 667,277 665,284 650,283 646,300 653,305 "/>
  <polygon class="home-area" points="667,277 689,279 693,279 677,260 680,253 655,251 649,275 "/>
  <polygon class="home-area" points="655,251 680,253 681,248 693,239 688,231 661,230 "/>
  <polygon class="home-area" points="688,231 693,239 732,230 711,210 693,208 "/>
  <polygon class="home-area" points="677,324 646,318 637,321 632,338 637,341 636,345 674,347 "/>
  <polygon class="home-area" points="674,347 636,345 635,349 629,351 620,378 671,371 "/>
  <polygon class="home-area" points="703,324 701,370 727,374 729,346 731,325 "/>
  <polygon class="home-area" points="701,370 703,324 677,324 674,347 671,371 "/>
  <polygon class="home-area" points="729,346 727,374 728,374 767,382 772,358 766,353 767,349 "/>
  <polygon class="home-area" points="729,346 767,349 767,347 773,344 776,329 770,325 731,325 "/>
  <polygon class="home-area" points="782,336 820,338 823,322 793,323 784,329 "/>
  <polygon class="home-area" points="820,338 782,336 781,344 786,348 785,351 814,354 818,354 "/>
  <polygon class="home-area" points="820,338 818,354 847,357 850,336 852,320 823,322 "/>
  <polygon class="home-area" points="850,336 847,357 883,360 887,340 "/>
  <polygon class="home-area" points="850,336 887,340 891,322 884,318 852,320 "/>
  <polygon class="home-area" points="877,365 848,363 841,399 856,398 875,399 880,376 875,372 "/>
  <polygon class="home-area" points="841,399 848,363 877,365 883,363 883,360 847,357 818,354 814,354 808,392 834,400 "/>
  <polygon class="home-area" points="808,392 814,354 785,351 784,355 778,358 774,382 "/>
  <polygon class="home-area" points="952,380 946,418 953,420 972,419 979,386 973,382 "/>
  <polygon class="home-area" points="946,418 952,380 973,382 974,377 936,374 923,373 917,410 "/>
  <polygon class="home-area" points="917,410 923,373 894,371 894,375 886,377 882,400 894,402 "/>
  <polygon class="home-area" points="894,371 923,373 936,374 939,356 913,355 894,342 889,364 895,368 "/>
  <polygon class="home-area" points="939,356 936,374 974,377 981,373 983,358 "/>
  <polygon class="home-area" points="1101,274 1149,285 1189,285 1184,270 1184,261 1144,250 1133,257 1119,260 1109,266 "/>
  <polygon class="home-area" points="1144,250 1184,261 1174,227 1165,227 1156,233 "/>
  <polygon class="home-area" points="1174,227 1184,261 1184,270 1196,270 1206,264 1198,225 "/>
  <polygon class="home-area" points="1206,264 1196,270 1184,270 1189,285 1214,292 1232,286 1237,269 1237,245 1235,222 1233,222 1198,225 "/>
  <polygon class="home-area" points="1235,222 1237,245 1264,244 1270,248 1266,220 "/>
  <polygon class="home-area" points="1266,220 1270,248 1279,252 1286,252 1302,249 1297,219 "/>
  <polygon class="home-area" points="1249,213 1249,204 1263,204 1263,197 1227,196 1226,211 1230,216 1246,216 "/>
  <polygon class="home-area" points="1227,196 1263,197 1263,179 1228,178 "/>
  <polygon class="home-area" points="1228,178 1263,179 1263,161 1228,161 "/>
  <polygon class="home-area" points="1228,161 1263,161 1263,126 1249,126 1229,147 1233,152 1233,158 "/>
  <polygon class="home-area" points="1229,147 1249,126 1210,124 1209,135 1220,147 "/>
  <polygon class="home-area" points="1220,147 1209,135 1179,148 1179,159 1219,161 1215,157 1215,151 "/>
  <polygon class="home-area" points="1219,161 1179,159 1179,177 1219,177 "/>
  <polygon class="home-area" points="1219,177 1179,177 1179,183 1176,185 1176,194 1186,195 1219,195 "/>
  <polygon class="home-area" points="1219,195 1186,195 1189,219 1210,217 1219,211 "/>
  <polygon class="home-area" points="1189,219 1186,195 1176,194 1154,194 1152,197 1163,218 1173,220 "/>
  <polygon class="home-area" points="1153,222 1149,212 1142,209 1117,212 1117,217 1115,221 1112,221 1114,233 1148,228 "/>
  <polygon class="home-area" points="1148,228 1114,233 1123,248 1134,250 1142,244 "/>
  <polygon class="home-area" points="1114,233 1112,221 1106,221 1101,219 1068,236 1077,240 1084,241 1094,236 "/>
  <polygon class="home-area" points="1068,236 1101,219 1099,212 1038,221 "/>
  <polygon class="home-area" points="1338,244 1338,262 1358,262 1358,245 "/>
  <polygon class="home-area" points="1338,244 1358,245 1364,222 1357,216 1330,218 1333,243 "/>
  <polygon class="home-area" points="1333,243 1330,218 1297,219 1302,249 "/>
  <polygon class="home-area" points="1314,211 1339,210 1339,190 1309,190 1309,207 "/>
  <polygon class="home-area" points="1339,190 1339,210 1366,208 1359,188 1339,178 "/>
  <polygon class="home-area" points="1309,190 1339,190 1339,178 1320,168 1305,166 1306,177 1310,177 1313,180 1313,187 1309,188 "/>
  <polygon class="home-area" points="1296,180 1300,177 1306,177 1305,166 1263,161 1263,179 "/>
  <polygon class="home-area" points="1296,180 1263,179 1263,197 1299,198 1299,189 1296,187 "/>
  <polygon class="home-area" points="1299,198 1263,197 1263,204 1263,213 1292,213 1299,207 "/>
  <rect class="fil1 str0" width="1440" height="620"/>
 </g>
</svg>
