<?xml version="1.0" encoding="utf-8"?><svg xmlns="http://www.w3.org/2000/svg" xmlns:xlink="http://www.w3.org/1999/xlink"><symbol viewBox="0 0 15 10" id="arrow-down" xmlns="http://www.w3.org/2000/svg"><title>Union</title><desc>Created using Figma</desc><use xlink:href="#aa"/><defs><path id="aa" fill-rule="evenodd" d="M2.121 0L0 2.121l4.95 4.95 2.121 2.121 2.121-2.121 4.95-4.95L12.023 0l-4.95 4.95L2.121 0z"/></defs></symbol><symbol viewBox="0 0 10 6" id="arrow-down-thin" xmlns="http://www.w3.org/2000/svg"><title>Rectangle 9</title><desc>Created using Figma</desc><use xlink:href="#ba" transform="matrix(.73652 .67642 .73652 -.67642 -.27 1.16)"/><defs><path id="ba" d="M0 .374L7.162 0l-.298 7.087-1.422.064.242-5.673-2.83.114-1.427.058L0 1.708V.374z"/></defs></symbol><symbol viewBox="0 0 28 44" id="arrow-left" xmlns="http://www.w3.org/2000/svg"><title>Union</title><desc>Created using Figma</desc><use xlink:href="#ca" transform="rotate(45.069 10.497 27.002)"/><defs><path id="ca" fill-rule="evenodd" d="M7.51 0H0v22.525l.001 7.509h30.032v-7.508H7.51V0z"/></defs></symbol><symbol viewBox="0 0 28 15" id="arrow-left-long" xmlns="http://www.w3.org/2000/svg"><title>ARROW</title><desc>Created using Figma</desc><use xlink:href="#da" transform="matrix(-1 0 0 1 27.07 6.1)"/><use xlink:href="#db" transform="scale(-1 1) rotate(-45 11.085 16.598)"/><use xlink:href="#db" transform="scale(-1 1) rotate(45 -3.535 -8.534)"/><defs><path id="da" d="M0 0h18v2H0V0z"/><path id="db" d="M0 0h10v2H0V0z"/></defs></symbol><symbol viewBox="0 0 28 44" id="arrow-right" xmlns="http://www.w3.org/2000/svg"><title>Union</title><desc>Created using Figma</desc><use xlink:href="#ea" transform="rotate(-134.931 12.092 20.243)"/><defs><path id="ea" fill-rule="evenodd" d="M0 22.525v7.509h30.033v-7.508H7.51V0H0v22.525z"/></defs></symbol><symbol viewBox="0 0 10 6" id="arrow-up-thin" xmlns="http://www.w3.org/2000/svg"><title>Rectangle 9</title><desc>Created using Figma</desc><use xlink:href="#fa" transform="matrix(.73652 -.67642 .73652 .67642 -.27 4.84)"/><defs><path id="fa" d="M0 .374L7.162 0l-.298 7.087-1.422.064.242-5.673-2.83.114-1.427.058L0 1.708V.374z"/></defs></symbol><symbol viewBox="0 0 3 17" id="attention" xmlns="http://www.w3.org/2000/svg"><title>Vector</title><desc>Created using Figma</desc><use xlink:href="#ga"/><defs><path id="ga" d="M.5 4.857h2V17h-2V4.857zm2.5-3.4c0 .826-.65 1.457-1.5 1.457S0 2.283 0 1.457C0 .631.65 0 1.5 0S3 .631 3 1.457z"/></defs></symbol><symbol viewBox="0 0 51 51" id="check" xmlns="http://www.w3.org/2000/svg"><title>noun_60255_cc</title><desc>Created using Figma</desc><use xlink:href="#ha"/><use xlink:href="#hb" transform="translate(11 14.88)"/><defs><path id="ha" d="M0 51h51V0H0v51zM3.923 3.923h43.154v43.154H3.923V3.923z"/><path id="hb" d="M10.62 15.692L2.775 7.846 0 10.621l10.62 10.62L29.088 2.774 26.313 0 10.62 15.692z"/></defs></symbol><symbol viewBox="0 0 75 54" id="city" xmlns="http://www.w3.org/2000/svg"><title>Vector</title><desc>Created using Figma</desc><use xlink:href="#ia"/><defs><path id="ia" d="M69.694 19.024L50.306 13.1v7.266H46.36V0H25.306v18.669H8.639v20.366h-5v11.88H0v2.773h6.36v-11.88h5V21.44h13.946V54h2.721V2.772H43.64V23.14h6.667V54h2.722V16.826l13.944 4.26v32.602H75v-2.773h-5.306V19.024z"/></defs></symbol><symbol viewBox="0 0 12 12" id="close" xmlns="http://www.w3.org/2000/svg"><title>Union</title><desc>Created using Figma</desc><use xlink:href="#ja" transform="translate(.34 .34)"/><defs><path id="ja" fill-rule="evenodd" d="M5.657 7.07L9.9 11.314 11.314 9.9 7.07 5.657l4.242-4.243L9.9 0 5.657 4.243 1.414 0 0 1.414l4.243 4.243L0 9.899l1.414 1.415L5.657 7.07z"/></defs></symbol><symbol viewBox="0 0 90 92" id="compass" xmlns="http://www.w3.org/2000/svg"><title>noun_650263_cc</title><desc>Created using Figma</desc><use xlink:href="#ka" transform="translate(17.15 15.4)"/><use xlink:href="#kb" transform="translate(-1 74.72)"/><use xlink:href="#kc" transform="translate(80.36 -5)"/><defs><path id="ka" d="M29.08 0C12.922.128-.125 13.346 0 29.513c.127 16.168 13.38 29.18 29.538 29.054 16.158-.126 29.164-13.344 29.037-29.511C58.45 12.887 45.24-.125 29.08 0zm1.54 2.686c13.637.666 24.579 11.576 25.251 25.266h-4.077c-.697.032-1.301.696-1.268 1.394.032.698.696 1.302 1.393 1.27h3.952C55.204 44.26 44.301 55.189 30.62 55.86v-3.934c.017-.755-.726-1.435-1.477-1.353-.654.072-1.2.695-1.185 1.353v3.934c-13.63-.677-24.599-11.563-25.273-25.245h3.973c.703.01 1.352-.629 1.352-1.332 0-.704-.649-1.342-1.352-1.332H2.684c.669-13.637 11.6-24.562 25.273-25.246V6.64c-.01.704.628 1.353 1.331 1.353s1.341-.65 1.331-1.353V2.686zM43.785 13.3a1.33 1.33 0 0 0-.52.166L24.63 24.122a1.333 1.333 0 0 0-.5.5L13.48 43.269a1.333 1.333 0 0 0 1.831 1.811l18.637-10.656a1.32 1.32 0 0 0 .5-.5l10.65-18.647a1.332 1.332 0 0 0-1.31-1.977zm-3.432 4.912L32.99 31.094l-5.533-5.536 12.896-7.346zm-14.768 9.24l5.533 5.536-12.897 7.347 7.364-12.883z"/><path id="kb" d="M16 11.273c0 1.865-.443 3.313-1.328 4.344-.88 1.026-2.128 1.54-3.742 1.54-1.547 0-2.758-.462-3.633-1.384-.87-.927-1.35-2.234-1.438-3.921H3.375V17H1.508V5.578h1.867v4.672h2.516c.145-1.568.65-2.768 1.515-3.602.865-.833 2.04-1.25 3.524-1.25 1.61 0 2.857.516 3.742 1.547C15.557 7.977 16 9.42 16 11.273zm-8.21 0c0 1.412.262 2.48.788 3.204.526.723 1.305 1.085 2.336 1.085 1.047 0 1.83-.364 2.352-1.093.52-.73.78-1.794.78-3.196 0-1.411-.262-2.476-.788-3.195C12.732 7.36 11.96 7 10.945 7c-1.041 0-1.828.362-2.36 1.086-.53.724-.796 1.786-.796 3.187z"/><path id="kc" d="M6.367 7.016c-1.073 0-1.916.38-2.531 1.14-.615.76-.922 1.81-.922 3.149 0 1.4.294 2.46.883 3.18.594.718 1.45 1.078 2.57 1.078.485 0 .953-.047 1.406-.141.454-.1.925-.224 1.415-.375v1.601c-.896.339-1.912.508-3.047.508-1.672 0-2.956-.505-3.852-1.515-.896-1.016-1.344-2.466-1.344-4.352 0-1.187.216-2.226.649-3.117.437-.89 1.067-1.573 1.89-2.047.823-.474 1.79-.71 2.899-.71 1.166 0 2.245.244 3.234.733l-.672 1.555a9.523 9.523 0 0 0-1.226-.476 4.294 4.294 0 0 0-1.352-.211z"/></defs></symbol><symbol viewBox="0 0 25 18" id="exit" xmlns="http://www.w3.org/2000/svg"><title>Vector</title><desc>Created using Figma</desc><use xlink:href="#la" transform="rotate(90 12.5 12.5)"/><defs><path id="la" d="M12 8v2h4v13H2V10h4V8H0v17h18V8h-6zM8 4v13h2V4h3L9 0 5 4h3z"/></defs></symbol><symbol viewBox="0 0 11 21" id="fb" xmlns="http://www.w3.org/2000/svg"><title>path0 fill</title><desc>Created using Figma</desc><use xlink:href="#ma"/><defs><path id="ma" d="M7.14 21v-9.575h3.242l.485-3.727H7.141V5.309c0-1.076.299-1.818 1.866-1.818H11V.151a26.588 26.588 0 0 0-2.903-.15c-2.87 0-4.842 1.738-4.842 4.928v2.756H0v3.727h3.255V21H7.14z"/></defs></symbol><symbol viewBox="0 0 37 30" id="house" xmlns="http://www.w3.org/2000/svg"><title>Vector</title><desc>Created using Figma</desc><use xlink:href="#na"/><defs><path id="na" d="M33.386 1.06H30.26v1.95L24.236 0 0 12.092l1.549 3.066 2.036-1.032V30h29.83V8.424l2.036 1.032L37 6.39l-3.614-1.805V1.06zM15.058 8.424v6.39H4.733v-1.232l10.325-5.158zm0 17.851H4.733v-7.45h10.325v7.45zM4.733 17.68v-1.72h10.325v1.72H4.733zm0 9.742h10.325v1.433H4.733V27.42zm11.472 1.433v-10.03h16.062v10.029H16.205zM32.267 17.68H16.205V7.851l8.031-4.011 8.031 4.011v9.828zm3.184-10.802l-.516 1.031L24.236 2.55 2.066 13.64l-.517-1.031L24.236 1.288l7.171 3.582V2.206h.832v3.066l3.212 1.605z"/></defs></symbol><symbol viewBox="0 0 16 16" id="instagram" xmlns="http://www.w3.org/2000/svg"><title>Vector</title><desc>Created using Figma</desc><use xlink:href="#oa"/><defs><path id="oa" d="M12.8 0H3.2A3.21 3.21 0 0 0 0 3.2v9.6C0 14.56 1.44 16 3.2 16h9.6c1.76 0 3.2-1.44 3.2-3.2V3.2C16 1.44 14.56 0 12.8 0zm-1.6 2.4h2.4v2.4h-2.4V2.4zM8 4.8c1.76 0 3.2 1.44 3.2 3.2 0 1.76-1.44 3.2-3.2 3.2A3.21 3.21 0 0 1 4.8 8c0-1.76 1.44-3.2 3.2-3.2zm6.4 8c0 .88-.72 1.6-1.6 1.6H3.2c-.88 0-1.6-.72-1.6-1.6V7.2h1.68c-.08.24-.08.56-.08.8 0 2.64 2.16 4.8 4.8 4.8 2.64 0 4.8-2.16 4.8-4.8 0-.24 0-.56-.08-.8h1.68v5.6z"/></defs></symbol><symbol viewBox="0 0 45 45" id="scheme" xmlns="http://www.w3.org/2000/svg"><title>noun_957542_cc</title><desc>Created using Figma</desc><use xlink:href="#pa"/><defs><path id="pa" d="M6.808 0C3.075 0 0 2.904 0 6.818c0 .929.23 2.262.538 3.096 1.938 4.18 3.896 8.363 5.845 12.542.073.156.242.227.41.227v.043h12.23a4.517 4.517 0 0 1 4.528 4.545 4.517 4.517 0 0 1-4.529 4.545h-5.435c-3.505 0-6.34 2.846-6.34 6.363 0 3.518 2.835 6.363 6.34 6.363h23.099V44.5c.169 0 .338-.072.41-.227 2.195-4.716 4.508-9.383 6.68-14.105.343-.914.61-2.316.61-3.352 0-4.377-3.476-7.726-7.714-7.726-4.239 0-7.686 3.35-7.686 7.726 0 1.037.268 2.439.609 3.352 2.116 4.49 4.255 8.978 6.383 13.465h-22.39a5.423 5.423 0 0 1-5.436-5.454 5.423 5.423 0 0 1 5.435-5.454h5.435c3.003 0 5.435-2.44 5.435-5.454s-2.432-5.454-5.435-5.454H7.502c1.83-3.976 3.746-7.918 5.548-11.903.305-.832.537-2.167.537-3.096C13.587 2.905 10.541 0 6.807 0zm0 .909c3.271 0 5.873 2.464 5.873 5.909 0 .76-.241 2.13-.48 2.784l-5.407 11.59-5.407-11.59c-.24-.653-.481-2.023-.481-2.784 0-3.443 2.63-5.909 5.902-5.909zm-.014 3.182a2.73 2.73 0 0 0-2.718 2.727 2.73 2.73 0 0 0 2.718 2.727A2.73 2.73 0 0 0 9.51 6.818 2.73 2.73 0 0 0 6.794 4.09zm0 .909c1.006 0 1.811.808 1.811 1.818S7.8 8.636 6.794 8.636a1.808 1.808 0 0 1-1.812-1.818C4.982 5.808 5.788 5 6.794 5zm29.878 14.999c3.767 0 6.807 2.918 6.807 6.817 0 .853-.258 2.232-.537 2.997-2.171 4.602-4.39 9.273-6.256 13.21-2.053-4.417-4.246-8.913-6.256-13.21-.278-.766-.538-2.145-.538-2.997 0-3.9 3.013-6.817 6.78-6.817zm.014 3.181c-1.996 0-3.624 1.634-3.624 3.636 0 2.003 1.628 3.637 3.624 3.637 1.995 0 3.623-1.634 3.623-3.637 0-2.002-1.628-3.636-3.623-3.636zm0 .91a2.715 2.715 0 0 1 2.717 2.726 2.715 2.715 0 0 1-2.717 2.727 2.716 2.716 0 0 1-2.718-2.727 2.715 2.715 0 0 1 2.718-2.727z"/></defs></symbol><symbol viewBox="0 0 61 56" id="sun" xmlns="http://www.w3.org/2000/svg"><title>noun_1040225_cc</title><desc>Created using Figma</desc><use xlink:href="#qa" transform="translate(0 38.46)"/><use xlink:href="#qb" transform="translate(0 47.95)"/><use xlink:href="#qc" transform="translate(29.3 5.38)"/><use xlink:href="#qd" transform="translate(37.7)"/><use xlink:href="#qe" transform="scale(.98646 1.01334) rotate(45 21.439 62.371)"/><use xlink:href="#qf" transform="translate(52.4 14.06)"/><use xlink:href="#qg" transform="scale(-.98646 -1.01334) rotate(45 8.648 -76.124)"/><use xlink:href="#qh" transform="translate(38.9 29.15)"/><use xlink:href="#qi" transform="scale(-.98646 -1.01334) rotate(45 19.985 -51.717)"/><use xlink:href="#qj" transform="translate(24 15.31)"/><use xlink:href="#qk" transform="scale(.98646 1.01334) rotate(45 10.164 38.082)"/><defs><path id="qa" d="M54.804 2.73c-1.199 1.084-2.065 1.869-3.974 1.869-1.909 0-2.775-.785-3.975-1.87C45.51 1.514 43.837 0 40.662 0c-3.177 0-4.849 1.514-6.193 2.73-1.2 1.084-2.067 1.869-3.974 1.869-1.908 0-2.774-.785-3.974-1.87C25.177 1.514 23.503 0 20.329 0c-3.175 0-4.848 1.514-6.192 2.73-1.199 1.085-2.064 1.869-3.972 1.869-1.907 0-2.773-.784-3.972-1.87C4.849 1.514 3.175 0 0 0v3.45c1.908 0 2.774.783 3.974 1.868 1.343 1.217 3.017 2.73 6.191 2.73 3.175 0 4.848-1.513 6.192-2.73 1.198-1.085 2.065-1.869 3.972-1.869s2.774.784 3.973 1.869c1.344 1.217 3.018 2.73 6.193 2.73s4.849-1.513 6.193-2.73c1.2-1.085 2.066-1.869 3.974-1.869 1.91 0 2.776.784 3.975 1.87 1.344 1.216 3.018 2.73 6.194 2.73 3.175 0 4.848-1.514 6.192-2.73 1.2-1.086 2.067-1.87 3.976-1.87V0c-3.177 0-4.85 1.514-6.195 2.73z"/><path id="qb" d="M50.83 4.599c-1.908 0-2.775-.785-3.975-1.87C45.51 1.514 43.837 0 40.662 0c-3.177 0-4.849 1.514-6.193 2.73-1.2 1.084-2.067 1.869-3.974 1.869-1.908 0-2.774-.785-3.974-1.87C25.177 1.514 23.503 0 20.329 0c-3.175 0-4.848 1.514-6.192 2.73-1.199 1.085-2.064 1.869-3.972 1.869-1.907 0-2.773-.784-3.972-1.87C4.849 1.514 3.175 0 0 0v3.45c1.908 0 2.774.783 3.974 1.868 1.343 1.217 3.017 2.73 6.191 2.73 3.175 0 4.848-1.513 6.192-2.73 1.198-1.085 2.065-1.869 3.972-1.869s2.774.784 3.973 1.869c1.344 1.217 3.018 2.73 6.193 2.73s4.849-1.513 6.193-2.73c1.2-1.085 2.066-1.869 3.974-1.869 1.91 0 2.776.784 3.975 1.87 1.344 1.216 3.018 2.73 6.194 2.73 3.175 0 4.848-1.514 6.192-2.73 1.2-1.086 2.067-1.87 3.976-1.87V0c-3.177 0-4.85 1.514-6.194 2.73-1.2 1.084-2.067 1.869-3.975 1.869z"/><path id="qc" d="M10.732 22.05c5.917 0 10.732-4.947 10.732-11.026C21.464 4.946 16.65 0 10.732 0 4.814 0 0 4.946 0 11.024 0 17.103 4.814 22.05 10.732 22.05zm0-18.6c4.066 0 7.374 3.397 7.374 7.574 0 4.178-3.308 7.576-7.374 7.576s-7.375-3.398-7.375-7.576c0-4.177 3.309-7.575 7.375-7.575z"/><path id="qd" d="M3.358 0H0v3.669h3.358V0z"/><path id="qe" d="M3.403 0H0v3.62h3.403V0z"/><path id="qf" d="M3.57 0H0v3.45h3.57V0z"/><path id="qg" d="M3.62 0H0v3.404h3.62V0z"/><path id="qh" d="M3.358 0H0v3.668h3.358V0z"/><path id="qi" d="M3.403 0H0v3.62h3.403V0z"/><path id="qj" d="M3.572 0H0v3.45h3.572V0z"/><path id="qk" d="M3.62 0H0v3.403h3.62V0z"/></defs></symbol><symbol viewBox="0 0 22 13" id="vk" xmlns="http://www.w3.org/2000/svg"><title>path0 fill 1</title><desc>Created using Figma</desc><use xlink:href="#ra"/><defs><path id="ra" d="M10.798 12.987h1.326s.398-.068.597-.272c.198-.204.198-.612.198-.612s0-1.836.796-2.108c.795-.272 1.856 1.768 2.917 2.516.862.612 1.458.476 1.458.476l2.917-.068s1.525-.068.795-1.36c-.066-.136-.397-.952-2.187-2.584-1.856-1.767-1.591-1.495.597-4.555 1.325-1.836 1.922-2.992 1.723-3.468-.133-.476-1.193-.34-1.193-.34h-3.315s-.265-.068-.398.068a.73.73 0 0 0-.265.34s-.53 1.428-1.193 2.652c-1.458 2.584-2.055 2.72-2.32 2.584-.597-.408-.398-1.496-.398-2.312 0-2.516.398-3.536-.729-3.808C11.792.068 11.527 0 10.599 0 9.406 0 8.412 0 7.881.272c-.397.204-.663.612-.464.612.2.068.73.136.995.476.331.476.331 1.564.331 1.564s.199 2.924-.464 3.332c-.464.272-1.06-.272-2.386-2.584-.663-1.224-1.194-2.516-1.194-2.516S4.567.884 4.434.748c-.199-.136-.53-.204-.53-.204H.722s-.464 0-.663.204c-.133.204 0 .612 0 .612s2.453 5.916 5.237 8.907c2.585 2.924 5.502 2.72 5.502 2.72z"/></defs></symbol></svg>